<?xml version="1.0" encoding="UTF-8"?>
<svg xmlns="http://www.w3.org/2000/svg" xmlns:xlink="http://www.w3.org/1999/xlink" width="120px" height="120px" viewBox="0 0 120 120" version="1.1">
<g id="surface1">
<path style=" stroke:none;fill-rule:nonzero;fill:rgb(40.784314%,73.725492%,44.313726%);fill-opacity:1;" d="M 60 -0.300781 C 60.867188 -0.308594 61.738281 -0.320312 62.632812 -0.328125 C 71.238281 -0.296875 78.980469 1.429688 86.601562 5.449219 C 87.144531 5.730469 87.691406 6.011719 88.253906 6.300781 C 92.214844 8.382812 95.789062 10.691406 99.199219 13.601562 C 99.652344 13.9375 100.101562 14.277344 100.570312 14.625 C 111.25 22.9375 117.628906 36.53125 120 49.601562 C 120.308594 53.074219 120.335938 56.511719 120.300781 60 C 120.308594 60.867188 120.320312 61.738281 120.328125 62.632812 C 120.296875 71.238281 118.570312 78.980469 114.550781 86.601562 C 114.269531 87.144531 113.988281 87.691406 113.699219 88.253906 C 111.617188 92.214844 109.308594 95.789062 106.398438 99.199219 C 106.0625 99.652344 105.722656 100.101562 105.375 100.570312 C 97.0625 111.25 83.46875 117.628906 70.398438 120 C 66.925781 120.308594 63.488281 120.335938 60 120.300781 C 59.132812 120.308594 58.261719 120.320312 57.367188 120.328125 C 48.761719 120.296875 41.019531 118.570312 33.398438 114.550781 C 32.582031 114.128906 32.582031 114.128906 31.746094 113.699219 C 27.785156 111.617188 24.210938 109.308594 20.800781 106.398438 C 20.347656 106.0625 19.898438 105.722656 19.429688 105.375 C 8.75 97.0625 2.371094 83.46875 0 70.398438 C -0.308594 66.925781 -0.335938 63.488281 -0.300781 60 C -0.308594 59.132812 -0.320312 58.261719 -0.328125 57.367188 C -0.296875 48.761719 1.429688 41.019531 5.449219 33.398438 C 5.730469 32.855469 6.011719 32.308594 6.300781 31.746094 C 8.382812 27.785156 10.691406 24.210938 13.601562 20.800781 C 13.9375 20.347656 14.277344 19.898438 14.625 19.429688 C 25.300781 5.714844 43.1875 -0.480469 60 -0.300781 Z M 31.199219 40 C 30.664062 55.433594 33.648438 68.53125 43.917969 80.601562 C 48.171875 85.148438 53.292969 90.484375 59.199219 92.800781 C 66.191406 92.183594 73.019531 84.238281 77.316406 79.285156 C 86.242188 67.515625 89.492188 54.621094 88.800781 40 C 70.113281 32.148438 49.5625 30.1875 31.199219 40 Z M 31.199219 40 "/>
<path style=" stroke:none;fill-rule:nonzero;fill:rgb(45.490196%,75.686276%,48.627451%);fill-opacity:1;" d="M 74.398438 48.800781 C 75.191406 49.0625 75.984375 49.328125 76.800781 49.601562 C 73.222656 55.152344 69.328125 60.417969 65.300781 65.648438 C 64.710938 66.417969 64.121094 67.1875 63.515625 67.980469 C 62.078125 69.855469 60.640625 71.726562 59.199219 73.601562 C 56.558594 70.984375 53.96875 68.335938 51.449219 65.601562 C 50.835938 64.941406 50.222656 64.28125 49.589844 63.601562 C 48.03125 61.636719 47.191406 59.964844 46.398438 57.601562 C 49.78125 56.402344 49.78125 56.402344 52 56.800781 C 54.476562 58.9375 56.441406 61.386719 58.398438 64 C 63.226562 60.011719 67.609375 55.660156 72 51.199219 C 72.800781 50.398438 73.597656 49.597656 74.398438 48.800781 Z M 74.398438 48.800781 "/>
</g>
</svg>
